<svg xmlns="http://www.w3.org/2000/svg" width="805" height="600"><rect width="805" height="600" x="0" y="0" fill="#FFFFFF" id="background"/><g transform="translate(20,20)" id="viz"><g id="nodes"><g transform="translate(383.5,281)"><path id="p_943.5" d="M-5.143516556418883e-14,280A280,280,0,1,1,5.143516556418883e-14,-280A280,280,0,1,1,-5.143516556418883e-14,280Z" fill="none" stroke="#ccc"/></g><g transform="translate(297.65089126098275,279.1275640459318)" id="pollo"><path id="p_664.1373259684453" d="M-1.6231261219787803e-14,88.35887066153082A88.35887066153082,88.35887066153082,0,1,1,1.6231261219787803e-14,-88.35887066153082A88.35887066153082,88.35887066153082,0,1,1,-1.6231261219787803e-14,88.35887066153082Z" fill="rgb(120, 44, 187)" stroke="none"/></g><g transform="translate(472.2211386811975,279.1275640459318)" id="tostadas"><path id="p_834.5955803308889" d="M-1.5475900349340448e-14,84.24687760375957A84.24687760375957,84.24687760375957,0,1,1,1.5475900349340448e-14,-84.24687760375957A84.24687760375957,84.24687760375957,0,1,1,-1.5475900349340448e-14,84.24687760375957Z" fill="rgb(139, 73, 195)" stroke="none"/></g><g transform="translate(388.9995791380365,427.889751807122)" id="huevos"><path id="p_900.136208548918" d="M-1.5475900349340448e-14,84.24687760375957A84.24687760375957,84.24687760375957,0,1,1,1.5475900349340448e-14,-84.24687760375957A84.24687760375957,84.24687760375957,0,1,1,-1.5475900349340448e-14,84.24687760375957Z" fill="rgb(139, 73, 195)" stroke="none"/></g><g transform="translate(388.8447031362934,138.0387262110699)" id="arroz"><path id="p_603.5552126929607" d="M-1.426807512873788e-14,77.67178334559738A77.67178334559738,77.67178334559738,0,1,1,1.426807512873788e-14,-77.67178334559738A77.67178334559738,77.67178334559738,0,1,1,-1.426807512873788e-14,77.67178334559738Z" fill="rgb(168, 116, 206)" stroke="none"/></g><g transform="translate(249.6398508806474,137.12959390188075)" id="carne"><path id="p_445.3409832299396" d="M-1.094311408198589e-14,59.57153844741147A59.57153844741147,59.57153844741147,0,1,1,1.094311408198589e-14,-59.57153844741147A59.57153844741147,59.57153844741147,0,1,1,-1.094311408198589e-14,59.57153844741147Z" fill="rgb(236, 216, 232)" stroke="none"/></g><g transform="translate(243.49428031962424,418.8971781069978)" id="milanesas de carne"><path id="p_720.9629968740335" d="M-1.094311408198589e-14,59.57153844741147A59.57153844741147,59.57153844741147,0,1,1,1.094311408198589e-14,-59.57153844741147A59.57153844741147,59.57153844741147,0,1,1,-1.094311408198589e-14,59.57153844741147Z" fill="rgb(236, 216, 232)" stroke="none"/></g><g transform="translate(524.737620163526,146.41470937200216)" id="lentejas"><path id="p_726.6668530997615" d="M-1.0381549558241395e-14,56.51452356423329A56.51452356423329,56.51452356423329,0,1,1,1.0381549558241395e-14,-56.51452356423329A56.51452356423329,56.51452356423329,0,1,1,-1.0381549558241395e-14,56.51452356423329Z" fill="rgb(245, 231, 236)" stroke="none"/></g><g transform="translate(526.9836542996944,407.4224653353767)" id="barrita"><path id="p_986.6885234321329" d="M-9.787818789142264e-15,53.28240379706173A53.28240379706173,53.28240379706173,0,1,1,9.787818789142264e-15,-53.28240379706173A53.28240379706173,53.28240379706173,0,1,1,-9.787818789142264e-15,53.28240379706173Z" fill="rgb(255, 245, 240)" stroke="none"/></g><g transform="translate(167.84322039568121,217.70617689404293)" id="tortilla de papa"><path id="p_437.83180108678584" d="M-9.787818789142264e-15,53.28240379706173A53.28240379706173,53.28240379706173,0,1,1,9.787818789142264e-15,-53.28240379706173A53.28240379706173,53.28240379706173,0,1,1,-9.787818789142264e-15,53.28240379706173Z" fill="rgb(255, 245, 240)" stroke="none"/></g><g transform="translate(165.28864064728685,334.83082093108925)" id="yogurt"><path id="p_552.4018653754379" d="M-9.787818789142264e-15,53.28240379706173A53.28240379706173,53.28240379706173,0,1,1,9.787818789142264e-15,-53.28240379706173A53.28240379706173,53.28240379706173,0,1,1,-9.787818789142264e-15,53.28240379706173Z" fill="rgb(255, 245, 240)" stroke="none"/></g><g transform="translate(601.7660735487316,227.39145804730737)" id="granola"><path id="p_881.4399353931008" d="M-9.787818789142264e-15,53.28240379706173A53.28240379706173,53.28240379706173,0,1,1,9.787818789142264e-15,-53.28240379706173A53.28240379706173,53.28240379706173,0,1,1,-9.787818789142264e-15,53.28240379706173Z" fill="rgb(255, 245, 240)" stroke="none"/></g></g><g id="labels"><g transform="translate(297.65089126098275,279.1275640459318)"><text text-anchor="middle" dominant-baseline="text-before-edge" transform="translate(0,-11.666666984558105)"><tspan x="0" y="0" dy="0" style="font-family: Arial, sans-serif; font-size: 10px; fill: black; font-weight: bold;">pollo</tspan><tspan x="0" y="0" dy="12" style="font-family: Arial, sans-serif; font-size: 10px; fill: black; font-weight: normal;">22</tspan></text></g><g transform="translate(472.2211386811975,279.1275640459318)"><text text-anchor="middle" dominant-baseline="text-before-edge" transform="translate(0,-11.666666984558105)"><tspan x="0" y="0" dy="0" style="font-family: Arial, sans-serif; font-size: 10px; fill: black; font-weight: bold;">tostadas</tspan><tspan x="0" y="0" dy="12" style="font-family: Arial, sans-serif; font-size: 10px; fill: black; font-weight: normal;">20</tspan></text></g><g transform="translate(388.9995791380365,427.889751807122)"><text text-anchor="middle" dominant-baseline="text-before-edge" transform="translate(0,-11.666666984558105)"><tspan x="0" y="0" dy="0" style="font-family: Arial, sans-serif; font-size: 10px; fill: black; font-weight: bold;">huevos</tspan><tspan x="0" y="0" dy="12" style="font-family: Arial, sans-serif; font-size: 10px; fill: black; font-weight: normal;">20</tspan></text></g><g transform="translate(388.8447031362934,138.0387262110699)"><text text-anchor="middle" dominant-baseline="text-before-edge" transform="translate(0,-11.666666984558105)"><tspan x="0" y="0" dy="0" style="font-family: Arial, sans-serif; font-size: 10px; fill: black; font-weight: bold;">arroz</tspan><tspan x="0" y="0" dy="12" style="font-family: Arial, sans-serif; font-size: 10px; fill: black; font-weight: normal;">17</tspan></text></g><g transform="translate(249.6398508806474,137.12959390188075)"><text text-anchor="middle" dominant-baseline="text-before-edge" transform="translate(0,-11.666666984558105)"><tspan x="0" y="0" dy="0" style="font-family: Arial, sans-serif; font-size: 10px; fill: black; font-weight: bold;">carne</tspan><tspan x="0" y="0" dy="12" style="font-family: Arial, sans-serif; font-size: 10px; fill: black; font-weight: normal;">10</tspan></text></g><g transform="translate(243.49428031962424,418.8971781069978)"><text text-anchor="middle" dominant-baseline="text-before-edge" transform="translate(0,-11.666666984558105)"><tspan x="0" y="0" dy="0" style="font-family: Arial, sans-serif; font-size: 10px; fill: black; font-weight: bold;">milanesas de carne</tspan><tspan x="0" y="0" dy="12" style="font-family: Arial, sans-serif; font-size: 10px; fill: black; font-weight: normal;">10</tspan></text></g><g transform="translate(524.737620163526,146.41470937200216)"><text text-anchor="middle" dominant-baseline="text-before-edge" transform="translate(0,-11.666666984558105)"><tspan x="0" y="0" dy="0" style="font-family: Arial, sans-serif; font-size: 10px; fill: black; font-weight: bold;">lentejas</tspan><tspan x="0" y="0" dy="12" style="font-family: Arial, sans-serif; font-size: 10px; fill: black; font-weight: normal;">9</tspan></text></g><g transform="translate(526.9836542996944,407.4224653353767)"><text text-anchor="middle" dominant-baseline="text-before-edge" transform="translate(0,-11.666666984558105)"><tspan x="0" y="0" dy="0" style="font-family: Arial, sans-serif; font-size: 10px; fill: black; font-weight: bold;">barrita</tspan><tspan x="0" y="0" dy="12" style="font-family: Arial, sans-serif; font-size: 10px; fill: black; font-weight: normal;">8</tspan></text></g><g transform="translate(167.84322039568121,217.70617689404293)"><text text-anchor="middle" dominant-baseline="text-before-edge" transform="translate(0,-11.666666984558105)"><tspan x="0" y="0" dy="0" style="font-family: Arial, sans-serif; font-size: 10px; fill: black; font-weight: bold;">tortilla de papa</tspan><tspan x="0" y="0" dy="12" style="font-family: Arial, sans-serif; font-size: 10px; fill: black; font-weight: normal;">8</tspan></text></g><g transform="translate(165.28864064728685,334.83082093108925)"><text text-anchor="middle" dominant-baseline="text-before-edge" transform="translate(0,-11.666666984558105)"><tspan x="0" y="0" dy="0" style="font-family: Arial, sans-serif; font-size: 10px; fill: black; font-weight: bold;">yogurt</tspan><tspan x="0" y="0" dy="12" style="font-family: Arial, sans-serif; font-size: 10px; fill: black; font-weight: normal;">8</tspan></text></g><g transform="translate(601.7660735487316,227.39145804730737)"><text text-anchor="middle" dominant-baseline="text-before-edge" transform="translate(0,-11.666666984558105)"><tspan x="0" y="0" dy="0" style="font-family: Arial, sans-serif; font-size: 10px; fill: black; font-weight: bold;">granola</tspan><tspan x="0" y="0" dy="12" style="font-family: Arial, sans-serif; font-size: 10px; fill: black; font-weight: normal;">8</tspan></text></g></g></g></svg>