<svg xmlns="http://www.w3.org/2000/svg" width="805" height="600"><rect width="805" height="600" x="0" y="0" fill="#FFFFFF" id="background"/><g transform="translate(20,20)" id="viz"><g id="nodes"><g transform="translate(383.5,281)"><path id="p_943.5" d="M-5.143516556418883e-14,280A280,280,0,1,1,5.143516556418883e-14,-280A280,280,0,1,1,-5.143516556418883e-14,280Z" fill="none" stroke="#ccc"/></g><g transform="translate(289.9481580319931,279.537105880418)" id="huevos"><path id="p_656.6342173970294" d="M-1.6192700059969012e-14,88.14895348461832A88.14895348461832,88.14895348461832,0,1,1,1.6192700059969012e-14,-88.14895348461832A88.14895348461832,88.14895348461832,0,1,1,-1.6192700059969012e-14,88.14895348461832Z" fill="#b565a7" stroke="none"/></g><g transform="translate(466.97729398146237,279.537105880418)" id="tostadas"><path id="p_832.4304401305035" d="M-1.596621757642977e-14,86.91604026862315A86.91604026862315,86.91604026862315,0,1,1,1.596621757642977e-14,-86.91604026862315A86.91604026862315,86.91604026862315,0,1,1,-1.596621757642977e-14,86.91604026862315Z" fill="#b565a7" stroke="none"/></g><g transform="translate(379.6826357843868,430.6853695743388)" id="pollo"><path id="p_895.0333899170198" d="M-1.5736475849556322e-14,85.66538455829425A85.66538455829425,85.66538455829425,0,1,1,1.5736475849556322e-14,-85.66538455829425A85.66538455829425,85.66538455829425,0,1,1,-1.5736475849556322e-14,85.66538455829425Z" fill="#f4a261" stroke="none"/></g><g transform="translate(379.6737965761815,129.86144578661595)" id="arroz"><path id="p_592.9314399493235" d="M-1.5503329985182015e-14,84.3961975865261A84.3961975865261,84.3961975865261,0,1,1,1.5503329985182015e-14,-84.3961975865261A84.3961975865261,84.3961975865261,0,1,1,-1.5503329985182015e-14,84.3961975865261Z" fill="#f4a261" stroke="none"/></g><g transform="translate(227.7635270975196,136.66819740045258)" id="carne"><path id="p_429.13407521033" d="M-1.2069326024451877e-14,65.70235071235784A65.70235071235784,65.70235071235784,0,1,1,1.2069326024451877e-14,-65.70235071235784A65.70235071235784,65.70235071235784,0,1,1,-1.2069326024451877e-14,65.70235071235784Z" fill="#7fc6e5" stroke="none"/></g><g transform="translate(230.12156818170396,419.75086030119246)" id="barrita"><path id="p_711.2031512463676" d="M-1.1449968018123902e-14,62.33072276347116A62.33072276347116,62.33072276347116,0,1,1,1.1449968018123902e-14,-62.33072276347116A62.33072276347116,62.33072276347116,0,1,1,-1.1449968018123902e-14,62.33072276347116Z" fill="#b565a7" stroke="none"/></g><g transform="translate(524.1657037189731,143.41630720861977)" id="granola"><path id="p_725.3479799173383" d="M-1.0795133373312674e-14,58.765968989745545A58.765968989745545,58.765968989745545,0,1,1,1.0795133373312674e-14,-58.765968989745545A58.765968989745545,58.765968989745545,0,1,1,-1.0795133373312674e-14,58.765968989745545Z" fill="#ffd166" stroke="none"/></g><g transform="translate(521.1560071437901,412.79510623234637)" id="milanesas de carne"><path id="p_987.9216438664889" d="M-1.0097922631866315e-14,54.970530490352445A54.970530490352445,54.970530490352445,0,1,1,1.0097922631866315e-14,-54.970530490352445A54.970530490352445,54.970530490352445,0,1,1,-1.0097922631866315e-14,54.970530490352445Z" fill="#7fc6e5" stroke="none"/></g><g transform="translate(600.2639746716454,333.6452232780275)" id="yogurt"><path id="p_987.8797284400254" d="M-1.0097922631866315e-14,54.970530490352445A54.970530490352445,54.970530490352445,0,1,1,1.0097922631866315e-14,-54.970530490352445A54.970530490352445,54.970530490352445,0,1,1,-1.0097922631866315e-14,54.970530490352445Z" fill="#ffd166" stroke="none"/></g><g transform="translate(594.3336306685328,227.4230863900185)" id="papas"><path id="p_869.482884453713" d="M-8.950851740280433e-15,48.72616739516169A48.72616739516169,48.72616739516169,0,1,1,8.950851740280433e-15,-48.72616739516169A48.72616739516169,48.72616739516169,0,1,1,-8.950851740280433e-15,48.72616739516169Z" fill="#7fc6e5" stroke="none"/></g><g transform="translate(160.79603507674807,330.4887506786202)" id="lentejas"><path id="p_539.01095315053" d="M-8.950851740280433e-15,48.72616739516169A48.72616739516169,48.72616739516169,0,1,1,8.950851740280433e-15,-48.72616739516169A48.72616739516169,48.72616739516169,0,1,1,-8.950851740280433e-15,48.72616739516169Z" fill="#f4a261" stroke="none"/></g><g transform="translate(159.6903258618653,231.0784227264925)" id="tortilla de papa"><path id="p_438.49491598351943" d="M-8.950851740280433e-15,48.72616739516169A48.72616739516169,48.72616739516169,0,1,1,8.950851740280433e-15,-48.72616739516169A48.72616739516169,48.72616739516169,0,1,1,-8.950851740280433e-15,48.72616739516169Z" fill="#f4a261" stroke="none"/></g></g><g id="labels"><g transform="translate(289.9481580319931,279.537105880418)"><text text-anchor="middle" dominant-baseline="text-before-edge" transform="translate(0,-11.666666984558105)"><tspan x="0" y="0" dy="0" style="font-family: Arial, sans-serif; font-size: 10px; fill: black; font-weight: bold;">huevos</tspan><tspan x="0" y="0" dy="12" style="font-family: Arial, sans-serif; font-size: 10px; fill: black; font-weight: normal;">36</tspan></text></g><g transform="translate(466.97729398146237,279.537105880418)"><text text-anchor="middle" dominant-baseline="text-before-edge" transform="translate(0,-11.666666984558105)"><tspan x="0" y="0" dy="0" style="font-family: Arial, sans-serif; font-size: 10px; fill: black; font-weight: bold;">tostadas</tspan><tspan x="0" y="0" dy="12" style="font-family: Arial, sans-serif; font-size: 10px; fill: black; font-weight: normal;">35</tspan></text></g><g transform="translate(379.6826357843868,430.6853695743388)"><text text-anchor="middle" dominant-baseline="text-before-edge" transform="translate(0,-11.666666984558105)"><tspan x="0" y="0" dy="0" style="font-family: Arial, sans-serif; font-size: 10px; fill: black; font-weight: bold;">pollo</tspan><tspan x="0" y="0" dy="12" style="font-family: Arial, sans-serif; font-size: 10px; fill: black; font-weight: normal;">34</tspan></text></g><g transform="translate(379.6737965761815,129.86144578661595)"><text text-anchor="middle" dominant-baseline="text-before-edge" transform="translate(0,-11.666666984558105)"><tspan x="0" y="0" dy="0" style="font-family: Arial, sans-serif; font-size: 10px; fill: black; font-weight: bold;">arroz</tspan><tspan x="0" y="0" dy="12" style="font-family: Arial, sans-serif; font-size: 10px; fill: black; font-weight: normal;">33</tspan></text></g><g transform="translate(227.7635270975196,136.66819740045258)"><text text-anchor="middle" dominant-baseline="text-before-edge" transform="translate(0,-11.666666984558105)"><tspan x="0" y="0" dy="0" style="font-family: Arial, sans-serif; font-size: 10px; fill: black; font-weight: bold;">carne</tspan><tspan x="0" y="0" dy="12" style="font-family: Arial, sans-serif; font-size: 10px; fill: black; font-weight: normal;">20</tspan></text></g><g transform="translate(230.12156818170396,419.75086030119246)"><text text-anchor="middle" dominant-baseline="text-before-edge" transform="translate(0,-11.666666984558105)"><tspan x="0" y="0" dy="0" style="font-family: Arial, sans-serif; font-size: 10px; fill: black; font-weight: bold;">barrita</tspan><tspan x="0" y="0" dy="12" style="font-family: Arial, sans-serif; font-size: 10px; fill: black; font-weight: normal;">18</tspan></text></g><g transform="translate(524.1657037189731,143.41630720861977)"><text text-anchor="middle" dominant-baseline="text-before-edge" transform="translate(0,-11.666666984558105)"><tspan x="0" y="0" dy="0" style="font-family: Arial, sans-serif; font-size: 10px; fill: black; font-weight: bold;">granola</tspan><tspan x="0" y="0" dy="12" style="font-family: Arial, sans-serif; font-size: 10px; fill: black; font-weight: normal;">16</tspan></text></g><g transform="translate(521.1560071437901,412.79510623234637)"><text text-anchor="middle" dominant-baseline="text-before-edge" transform="translate(0,-11.666666984558105)"><tspan x="0" y="0" dy="0" style="font-family: Arial, sans-serif; font-size: 10px; fill: black; font-weight: bold;">milanesas de carne</tspan><tspan x="0" y="0" dy="12" style="font-family: Arial, sans-serif; font-size: 10px; fill: black; font-weight: normal;">14</tspan></text></g><g transform="translate(600.2639746716454,333.6452232780275)"><text text-anchor="middle" dominant-baseline="text-before-edge" transform="translate(0,-11.666666984558105)"><tspan x="0" y="0" dy="0" style="font-family: Arial, sans-serif; font-size: 10px; fill: black; font-weight: bold;">yogurt</tspan><tspan x="0" y="0" dy="12" style="font-family: Arial, sans-serif; font-size: 10px; fill: black; font-weight: normal;">14</tspan></text></g><g transform="translate(594.3336306685328,227.4230863900185)"><text text-anchor="middle" dominant-baseline="text-before-edge" transform="translate(0,-11.666666984558105)"><tspan x="0" y="0" dy="0" style="font-family: Arial, sans-serif; font-size: 10px; fill: black; font-weight: bold;">papas</tspan><tspan x="0" y="0" dy="12" style="font-family: Arial, sans-serif; font-size: 10px; fill: black; font-weight: normal;">11</tspan></text></g><g transform="translate(160.79603507674807,330.4887506786202)"><text text-anchor="middle" dominant-baseline="text-before-edge" transform="translate(0,-11.666666984558105)"><tspan x="0" y="0" dy="0" style="font-family: Arial, sans-serif; font-size: 10px; fill: black; font-weight: bold;">lentejas</tspan><tspan x="0" y="0" dy="12" style="font-family: Arial, sans-serif; font-size: 10px; fill: black; font-weight: normal;">11</tspan></text></g><g transform="translate(159.6903258618653,231.0784227264925)"><text text-anchor="middle" dominant-baseline="text-before-edge" transform="translate(0,-11.666666984558105)"><tspan x="0" y="0" dy="0" style="font-family: Arial, sans-serif; font-size: 10px; fill: black; font-weight: bold;">tortilla de papa</tspan><tspan x="0" y="0" dy="12" style="font-family: Arial, sans-serif; font-size: 10px; fill: black; font-weight: normal;">11</tspan></text></g></g></g></svg>