<svg xmlns="http://www.w3.org/2000/svg" width="805" height="600"><rect width="805" height="600" x="0" y="0" fill="#FFFFFF" id="background"/><g transform="translate(20,20)" id="viz"><g id="nodes"><g transform="translate(383.5,281)"><path id="p_943.5" d="M-5.143516556418883e-14,280A280,280,0,1,1,5.143516556418883e-14,-280A280,280,0,1,1,-5.143516556418883e-14,280Z" fill="none" stroke="#ccc"/></g><g transform="translate(308.8497136650968,258.11410059179485)" id="information"><path id="p_662.0093674690388" d="M-1.7643281897038926e-14,96.04555321214718A96.04555321214718,96.04555321214718,0,1,1,1.7643281897038926e-14,-96.04555321214718A96.04555321214718,96.04555321214718,0,1,1,-1.7643281897038926e-14,96.04555321214718Z" fill="rgb(8, 48, 107)" stroke="none"/></g><g transform="translate(481.2302613108363,258.11410059179485)" id="visualization"><path id="p_812.740927516216" d="M-1.366642739193491e-14,74.39656561358485A74.39656561358485,74.39656561358485,0,1,1,1.366642739193491e-14,-74.39656561358485A74.39656561358485,74.39656561358485,0,1,1,-1.366642739193491e-14,74.39656561358485Z" fill="rgb(89, 161, 207)" stroke="none"/></g><g transform="translate(414.0777744243813,381.8280227414738)" id="abstract"><path id="p_859.3351129415354" d="M-1.1835473300391143e-14,64.42931577568031A64.42931577568031,64.42931577568031,0,1,1,1.1835473300391143e-14,-64.42931577568031A64.42931577568031,64.42931577568031,0,1,1,-1.1835473300391143e-14,64.42931577568031Z" fill="rgb(151, 198, 224)" stroke="none"/></g><g transform="translate(412.0173043315023,154.79700711675153)" id="visual"><path id="p_613.8370880543275" d="M-8.821640948519463e-15,48.02277660607359A48.02277660607359,48.02277660607359,0,1,1,8.821640948519463e-15,-48.02277660607359A48.02277660607359,48.02277660607359,0,1,1,-8.821640948519463e-15,48.02277660607359Z" fill="rgb(214, 230, 244)" stroke="none"/></g><g transform="translate(323.47029970707547,112.84121244045761)" id="computer"><path id="p_483.3342887536067" d="M-8.821640948519463e-15,48.02277660607359A48.02277660607359,48.02277660607359,0,1,1,8.821640948519463e-15,-48.02277660607359A48.02277660607359,48.02277660607359,0,1,1,-8.821640948519463e-15,48.02277660607359Z" fill="rgb(214, 230, 244)" stroke="none"/></g><g transform="translate(306.11815243450695,399.0244865074458)" id="interactive"><path id="p_747.0955161257397" d="M-7.890315533594096e-15,42.952877183786875A42.952877183786875,42.952877183786875,0,1,1,7.890315533594096e-15,-42.952877183786875A42.952877183786875,42.952877183786875,0,1,1,-7.890315533594096e-15,42.952877183786875Z" fill="rgb(225, 237, 248)" stroke="none"/></g><g transform="translate(503.9013647216943,141.0004063236243)" id="datum"><path id="p_686.8546482291055" d="M-7.890315533594096e-15,42.952877183786875A42.952877183786875,42.952877183786875,0,1,1,7.890315533594096e-15,-42.952877183786875A42.952877183786875,42.952877183786875,0,1,1,-7.890315533594096e-15,42.952877183786875Z" fill="rgb(225, 237, 248)" stroke="none"/></g><g transform="translate(522.7504089257438,369.9428699538898)" id="map"><path id="p_934.6461560634206" d="M-7.890315533594096e-15,42.952877183786875A42.952877183786875,42.952877183786875,0,1,1,7.890315533594096e-15,-42.952877183786875A42.952877183786875,42.952877183786875,0,1,1,-7.890315533594096e-15,42.952877183786875Z" fill="rgb(225, 237, 248)" stroke="none"/></g><g transform="translate(241.0423175807453,141.16795160326635)" id="use"><path id="p_418.408551990804" d="M-6.833213695967455e-15,37.19828280679243A37.19828280679243,37.19828280679243,0,1,1,6.833213695967455e-15,-37.19828280679243A37.19828280679243,37.19828280679243,0,1,1,-6.833213695967455e-15,37.19828280679243Z" fill="rgb(236, 244, 251)" stroke="none"/></g><g transform="translate(238.68569751016886,365.59590584120787)" id="representation"><path id="p_633.6538740795054" d="M-5.579295619505938e-15,30.372270728128637A30.372270728128637,30.372270728128637,0,1,1,5.579295619505938e-15,-30.372270728128637A30.372270728128637,30.372270728128637,0,1,1,-5.579295619505938e-15,30.372270728128637Z" fill="rgb(247, 251, 255)" stroke="none"/></g><g transform="translate(395.0046072745511,76.28563513875477)" id="human"><path id="p_500.66251314143454" d="M-5.579295619505938e-15,30.372270728128637A30.372270728128637,30.372270728128637,0,1,1,5.579295619505938e-15,-30.372270728128637A30.372270728128637,30.372270728128637,0,1,1,-5.579295619505938e-15,30.372270728128637Z" fill="rgb(247, 251, 255)" stroke="none"/></g><g transform="translate(562.1950516150334,188.6076752104591)" id="enable"><path id="p_780.1749975536212" d="M-5.579295619505938e-15,30.372270728128637A30.372270728128637,30.372270728128637,0,1,1,5.579295619505938e-15,-30.372270728128637A30.372270728128637,30.372270728128637,0,1,1,-5.579295619505938e-15,30.372270728128637Z" fill="rgb(247, 251, 255)" stroke="none"/></g><g transform="translate(457.4458968238454,81.7847370723697)" id="amplify"><path id="p_568.6029046243438" d="M-5.579295619505938e-15,30.372270728128637A30.372270728128637,30.372270728128637,0,1,1,5.579295619505938e-15,-30.372270728128637A30.372270728128637,30.372270728128637,0,1,1,-5.579295619505938e-15,30.372270728128637Z" fill="rgb(247, 251, 255)" stroke="none"/></g><g transform="translate(353.6538508672091,457.37655036980846)" id="structure"><path id="p_840.4026719651462" d="M-5.579295619505938e-15,30.372270728128637A30.372270728128637,30.372270728128637,0,1,1,5.579295619505938e-15,-30.372270728128637A30.372270728128637,30.372270728128637,0,1,1,-5.579295619505938e-15,30.372270728128637Z" fill="rgb(247, 251, 255)" stroke="none"/></g><g transform="translate(572.472820851332,313.44253601873345)" id="geographic"><path id="p_915.2876275981941" d="M-5.579295619505938e-15,30.372270728128637A30.372270728128637,30.372270728128637,0,1,1,5.579295619505938e-15,-30.372270728128637A30.372270728128637,30.372270728128637,0,1,1,-5.579295619505938e-15,30.372270728128637Z" fill="rgb(247, 251, 255)" stroke="none"/></g><g transform="translate(197.0783098769127,195.00719987657635)" id="contrast"><path id="p_421.4577804816177" d="M-5.579295619505938e-15,30.372270728128637A30.372270728128637,30.372270728128637,0,1,1,5.579295619505938e-15,-30.372270728128637A30.372270728128637,30.372270728128637,0,1,1,-5.579295619505938e-15,30.372270728128637Z" fill="rgb(247, 251, 255)" stroke="none"/></g><g transform="translate(492.2872154839415,438.7658299876561)" id="scientific"><path id="p_960.4253161997264" d="M-5.579295619505938e-15,30.372270728128637A30.372270728128637,30.372270728128637,0,1,1,5.579295619505938e-15,-30.372270728128637A30.372270728128637,30.372270728128637,0,1,1,-5.579295619505938e-15,30.372270728128637Z" fill="rgb(247, 251, 255)" stroke="none"/></g><g transform="translate(196.15219208084673,319.5518434818883)" id="sensory"><path id="p_545.0763062908637" d="M-5.579295619505938e-15,30.372270728128637A30.372270728128637,30.372270728128637,0,1,1,5.579295619505938e-15,-30.372270728128637A30.372270728128637,30.372270728128637,0,1,1,-5.579295619505938e-15,30.372270728128637Z" fill="rgb(247, 251, 255)" stroke="none"/></g><g transform="translate(587.2548852597005,246.06339294469947)" id="represent"><path id="p_862.6905489325286" d="M-5.579295619505938e-15,30.372270728128637A30.372270728128637,30.372270728128637,0,1,1,5.579295619505938e-15,-30.372270728128637A30.372270728128637,30.372270728128637,0,1,1,-5.579295619505938e-15,30.372270728128637Z" fill="rgb(247, 251, 255)" stroke="none"/></g><g transform="translate(630.9886014924832,290.9690365446471)" id="take"><path id="p_951.329908765259" d="M-5.579295619505938e-15,30.372270728128637A30.372270728128637,30.372270728128637,0,1,1,5.579295619505938e-15,-30.372270728128637A30.372270728128637,30.372270728128637,0,1,1,-5.579295619505938e-15,30.372270728128637Z" fill="rgb(247, 251, 255)" stroke="none"/></g><g transform="translate(180.52082485681393,255.46383270097616)" id="screen"><path id="p_465.35692828591874" d="M-5.579295619505938e-15,30.372270728128637A30.372270728128637,30.372270728128637,0,1,1,5.579295619505938e-15,-30.372270728128637A30.372270728128637,30.372270728128637,0,1,1,-5.579295619505938e-15,30.372270728128637Z" fill="rgb(247, 251, 255)" stroke="none"/></g><g transform="translate(136.55120625610115,300.1385168382249)" id="kind"><path id="p_466.06199382245467" d="M-5.579295619505938e-15,30.372270728128637A30.372270728128637,30.372270728128637,0,1,1,5.579295619505938e-15,-30.372270728128637A30.372270728128637,30.372270728128637,0,1,1,-5.579295619505938e-15,30.372270728128637Z" fill="rgb(247, 251, 255)" stroke="none"/></g><g transform="translate(253.80387959889052,72.84049619275953)" id="space"><path id="p_356.0166465197787" d="M-5.579295619505938e-15,30.372270728128637A30.372270728128637,30.372270728128637,0,1,1,5.579295619505938e-15,-30.372270728128637A30.372270728128637,30.372270728128637,0,1,1,-5.579295619505938e-15,30.372270728128637Z" fill="rgb(247, 251, 255)" stroke="none"/></g><g transform="translate(346.9646154664699,36.02009218035698)" id="unstructured"><path id="p_412.35697837495553" d="M-5.579295619505938e-15,30.372270728128637A30.372270728128637,30.372270728128637,0,1,1,5.579295619505938e-15,-30.372270728128637A30.372270728128637,30.372270728128637,0,1,1,-5.579295619505938e-15,30.372270728128637Z" fill="rgb(247, 251, 255)" stroke="none"/></g><g transform="translate(236.76026600711967,428.2492974188564)" id="criterion"><path id="p_694.3818341541047" d="M-5.579295619505938e-15,30.372270728128637A30.372270728128637,30.372270728128637,0,1,1,5.579295619505938e-15,-30.372270728128637A30.372270728128637,30.372270728128637,0,1,1,-5.579295619505938e-15,30.372270728128637Z" fill="rgb(247, 251, 255)" stroke="none"/></g><g transform="translate(412.6498016077946,478.5574983861154)" id="spatial"><path id="p_920.5795707220387" d="M-5.579295619505938e-15,30.372270728128637A30.372270728128637,30.372270728128637,0,1,1,5.579295619505938e-15,-30.372270728128637A30.372270728128637,30.372270728128637,0,1,1,-5.579295619505938e-15,30.372270728128637Z" fill="rgb(247, 251, 255)" stroke="none"/></g></g><g id="labels"><g transform="translate(308.8497136650968,258.11410059179485)"><text text-anchor="middle" dominant-baseline="text-before-edge" transform="translate(0,-5.6666669845581055)"><tspan x="0" y="0" dy="0" style="font-family: Arial, sans-serif; font-size: 10px; fill: black; font-weight: bold;">information</tspan></text></g><g transform="translate(481.2302613108363,258.11410059179485)"><text text-anchor="middle" dominant-baseline="text-before-edge" transform="translate(0,-5.6666669845581055)"><tspan x="0" y="0" dy="0" style="font-family: Arial, sans-serif; font-size: 10px; fill: black; font-weight: bold;">visualization</tspan></text></g><g transform="translate(414.0777744243813,381.8280227414738)"><text text-anchor="middle" dominant-baseline="text-before-edge" transform="translate(0,-5.6666669845581055)"><tspan x="0" y="0" dy="0" style="font-family: Arial, sans-serif; font-size: 10px; fill: black; font-weight: bold;">abstract</tspan></text></g><g transform="translate(412.0173043315023,154.79700711675153)"><text text-anchor="middle" dominant-baseline="text-before-edge" transform="translate(0,-5.6666669845581055)"><tspan x="0" y="0" dy="0" style="font-family: Arial, sans-serif; font-size: 10px; fill: black; font-weight: bold;">visual</tspan></text></g><g transform="translate(323.47029970707547,112.84121244045761)"><text text-anchor="middle" dominant-baseline="text-before-edge" transform="translate(0,-5.6666669845581055)"><tspan x="0" y="0" dy="0" style="font-family: Arial, sans-serif; font-size: 10px; fill: black; font-weight: bold;">computer</tspan></text></g><g transform="translate(306.11815243450695,399.0244865074458)"><text text-anchor="middle" dominant-baseline="text-before-edge" transform="translate(0,-5.6666669845581055)"><tspan x="0" y="0" dy="0" style="font-family: Arial, sans-serif; font-size: 10px; fill: black; font-weight: bold;">interactive</tspan></text></g><g transform="translate(503.9013647216943,141.0004063236243)"><text text-anchor="middle" dominant-baseline="text-before-edge" transform="translate(0,-5.6666669845581055)"><tspan x="0" y="0" dy="0" style="font-family: Arial, sans-serif; font-size: 10px; fill: black; font-weight: bold;">datum</tspan></text></g><g transform="translate(522.7504089257438,369.9428699538898)"><text text-anchor="middle" dominant-baseline="text-before-edge" transform="translate(0,-5.6666669845581055)"><tspan x="0" y="0" dy="0" style="font-family: Arial, sans-serif; font-size: 10px; fill: black; font-weight: bold;">map</tspan></text></g><g transform="translate(241.0423175807453,141.16795160326635)"><text text-anchor="middle" dominant-baseline="text-before-edge" transform="translate(0,-5.6666669845581055)"><tspan x="0" y="0" dy="0" style="font-family: Arial, sans-serif; font-size: 10px; fill: black; font-weight: bold;">use</tspan></text></g><g transform="translate(238.68569751016886,365.59590584120787)"><text text-anchor="middle" dominant-baseline="text-before-edge" transform="translate(0,-5.6666669845581055)"><tspan x="0" y="0" dy="0" style="font-family: Arial, sans-serif; font-size: 10px; fill: black; font-weight: bold;">representation</tspan></text></g><g transform="translate(395.0046072745511,76.28563513875477)"><text text-anchor="middle" dominant-baseline="text-before-edge" transform="translate(0,-5.6666669845581055)"><tspan x="0" y="0" dy="0" style="font-family: Arial, sans-serif; font-size: 10px; fill: black; font-weight: bold;">human</tspan></text></g><g transform="translate(562.1950516150334,188.6076752104591)"><text text-anchor="middle" dominant-baseline="text-before-edge" transform="translate(0,-5.6666669845581055)"><tspan x="0" y="0" dy="0" style="font-family: Arial, sans-serif; font-size: 10px; fill: black; font-weight: bold;">enable</tspan></text></g><g transform="translate(457.4458968238454,81.7847370723697)"><text text-anchor="middle" dominant-baseline="text-before-edge" transform="translate(0,-5.6666669845581055)"><tspan x="0" y="0" dy="0" style="font-family: Arial, sans-serif; font-size: 10px; fill: black; font-weight: bold;">amplify</tspan></text></g><g transform="translate(353.6538508672091,457.37655036980846)"><text text-anchor="middle" dominant-baseline="text-before-edge" transform="translate(0,-5.6666669845581055)"><tspan x="0" y="0" dy="0" style="font-family: Arial, sans-serif; font-size: 10px; fill: black; font-weight: bold;">structure</tspan></text></g><g transform="translate(572.472820851332,313.44253601873345)"><text text-anchor="middle" dominant-baseline="text-before-edge" transform="translate(0,-5.6666669845581055)"><tspan x="0" y="0" dy="0" style="font-family: Arial, sans-serif; font-size: 10px; fill: black; font-weight: bold;">geographic</tspan></text></g><g transform="translate(197.0783098769127,195.00719987657635)"><text text-anchor="middle" dominant-baseline="text-before-edge" transform="translate(0,-5.6666669845581055)"><tspan x="0" y="0" dy="0" style="font-family: Arial, sans-serif; font-size: 10px; fill: black; font-weight: bold;">contrast</tspan></text></g><g transform="translate(492.2872154839415,438.7658299876561)"><text text-anchor="middle" dominant-baseline="text-before-edge" transform="translate(0,-5.6666669845581055)"><tspan x="0" y="0" dy="0" style="font-family: Arial, sans-serif; font-size: 10px; fill: black; font-weight: bold;">scientific</tspan></text></g><g transform="translate(196.15219208084673,319.5518434818883)"><text text-anchor="middle" dominant-baseline="text-before-edge" transform="translate(0,-5.6666669845581055)"><tspan x="0" y="0" dy="0" style="font-family: Arial, sans-serif; font-size: 10px; fill: black; font-weight: bold;">sensory</tspan></text></g><g transform="translate(587.2548852597005,246.06339294469947)"><text text-anchor="middle" dominant-baseline="text-before-edge" transform="translate(0,-5.6666669845581055)"><tspan x="0" y="0" dy="0" style="font-family: Arial, sans-serif; font-size: 10px; fill: black; font-weight: bold;">represent</tspan></text></g><g transform="translate(630.9886014924832,290.9690365446471)"><text text-anchor="middle" dominant-baseline="text-before-edge" transform="translate(0,-5.6666669845581055)"><tspan x="0" y="0" dy="0" style="font-family: Arial, sans-serif; font-size: 10px; fill: black; font-weight: bold;">take</tspan></text></g><g transform="translate(180.52082485681393,255.46383270097616)"><text text-anchor="middle" dominant-baseline="text-before-edge" transform="translate(0,-5.6666669845581055)"><tspan x="0" y="0" dy="0" style="font-family: Arial, sans-serif; font-size: 10px; fill: black; font-weight: bold;">screen</tspan></text></g><g transform="translate(136.55120625610115,300.1385168382249)"><text text-anchor="middle" dominant-baseline="text-before-edge" transform="translate(0,-5.6666669845581055)"><tspan x="0" y="0" dy="0" style="font-family: Arial, sans-serif; font-size: 10px; fill: black; font-weight: bold;">kind</tspan></text></g><g transform="translate(253.80387959889052,72.84049619275953)"><text text-anchor="middle" dominant-baseline="text-before-edge" transform="translate(0,-5.6666669845581055)"><tspan x="0" y="0" dy="0" style="font-family: Arial, sans-serif; font-size: 10px; fill: black; font-weight: bold;">space</tspan></text></g><g transform="translate(346.9646154664699,36.02009218035698)"><text text-anchor="middle" dominant-baseline="text-before-edge" transform="translate(0,-5.6666669845581055)"><tspan x="0" y="0" dy="0" style="font-family: Arial, sans-serif; font-size: 10px; fill: black; font-weight: bold;">unstructured</tspan></text></g><g transform="translate(236.76026600711967,428.2492974188564)"><text text-anchor="middle" dominant-baseline="text-before-edge" transform="translate(0,-5.6666669845581055)"><tspan x="0" y="0" dy="0" style="font-family: Arial, sans-serif; font-size: 10px; fill: black; font-weight: bold;">criterion</tspan></text></g><g transform="translate(412.6498016077946,478.5574983861154)"><text text-anchor="middle" dominant-baseline="text-before-edge" transform="translate(0,-5.6666669845581055)"><tspan x="0" y="0" dy="0" style="font-family: Arial, sans-serif; font-size: 10px; fill: black; font-weight: bold;">spatial</tspan></text></g></g></g></svg>